# xmcd
# 
# Track frame offsets:
#     150
#     11052
#     25937
#     35515
#     50137
#     59830
#     76300
#     86955
#     100795
#     113740
#     126157
#     136082
#     147150
#     162960
# 
# Disc length: 2380
# 
# Revision: 2
# Processed by: cddbd v1.5.2PL0 Copyright (c) Steve Scherf et al.
# Submitted via: BonkEnc v1.0
# 
DISCID=c1094a0e
DTITLE=PAULO SERGIO - serie bis -jovem guarda cd 2
DYEAR=0
DGENRE=
TTITLE0=vou pedir outra vez
TTITLE1=o amanha espera por nos dois
TTITLE2=nao vou querer
TTITLE3=veja
TTITLE4=quando a saudade apertar
TTITLE5=vou ver meu amor
TTITLE6=nao sei te esquecer
TTITLE7=fujo de mim
TTITLE8=benzinho
TTITLE9=voce noa presta
TTITLE10=eu nao sou o que voce esta pensando
TTITLE11=desiludido
TTITLE12=minhas qualidades meus defeitos
TTITLE13=ultima cançao
EXTD=
EXTT0=
EXTT1=
EXTT2=
EXTT3=
EXTT4=
EXTT5=
EXTT6=
EXTT7=
EXTT8=
EXTT9=
EXTT10=
EXTT11=
EXTT12=
EXTT13=
PLAYORDER=
